<?xml version="1.0" encoding="UTF-8" standalone="no"?>
<!-- Uploaded to: SVG Repo, www.svgrepo.com, Transformed by: SVG Repo Mixer Tools -->

<svg
   height="110.68705"
   width="140.07016"
   version="1.1"
   id="Capa_1"
   viewBox="0 0 9.9427052 7.8569819"
   xml:space="preserve"
   fill="#000000"
   sodipodi:docname="man-in-office-desk-with-computer-svgrepo-com.svg"
   inkscape:version="1.1.2 (0a00cf5339, 2022-02-04)"
   xmlns:inkscape="http://www.inkscape.org/namespaces/inkscape"
   xmlns:sodipodi="http://sodipodi.sourceforge.net/DTD/sodipodi-0.dtd"
   xmlns="http://www.w3.org/2000/svg"
   xmlns:svg="http://www.w3.org/2000/svg"><defs
   id="defs14420" /><sodipodi:namedview
   id="namedview14418"
   pagecolor="#ffffff"
   bordercolor="#cccccc"
   borderopacity="1"
   inkscape:pageshadow="0"
   inkscape:pageopacity="1"
   inkscape:pagecheckerboard="0"
   showgrid="false"
   inkscape:zoom="0.93875"
   inkscape:cx="396.27164"
   inkscape:cy="-288.68176"
   inkscape:window-width="1900"
   inkscape:window-height="1046"
   inkscape:window-x="10"
   inkscape:window-y="10"
   inkscape:window-maximized="1"
   inkscape:current-layer="Capa_1"
   fit-margin-top="10"
   fit-margin-left="10"
   fit-margin-right="20"
   fit-margin-bottom="10" />

<g
   id="SVGRepo_bgCarrier"
   stroke-width="0"
   transform="translate(0.7098375,-48.879045)" />

<g
   id="SVGRepo_tracerCarrier"
   stroke-linecap="round"
   stroke-linejoin="round"
   transform="translate(0.7098375,-48.879045)" />

<g
   id="SVGRepo_iconCarrier"
   transform="matrix(0.13758734,0,0,0.11647821,0.7098375,0.62131406)"> <g
   id="g14414"> <path
   style="fill:#010002"
   d="m 20.875,23.107 c -0.178,0.011 -0.756,0.508 -0.756,0.508 0.311,0.134 0.935,-0.519 0.756,-0.508 z m 0.078,-0.102 -0.046,0.028 c 0.016,-0.006 0.031,-0.012 0.045,-0.018 0,-0.004 10e-4,-0.006 10e-4,-0.01 z M 42.363,0.76 c 3.207,0 5.807,2.6 5.807,5.807 0,3.207 -2.6,5.807 -5.807,5.807 -3.207,0 -5.807,-2.6 -5.807,-5.807 0,-3.207 2.6,-5.807 5.807,-5.807 z M 7.503,25.657 H 9.059 V 24.909 H 7.503 c -0.424,0 -0.73,-0.084 -0.842,-0.23 C 6.576,24.567 6.613,24.421 6.613,24.421 L 6.632,19.905 H 5.884 v 4.357 c -0.033,0.152 -0.075,0.517 0.171,0.853 0.262,0.359 0.751,0.542 1.448,0.542 z m 49.185,10.612 -0.211,-1.712 c -0.834,-6.688 -0.867,-6.943 -0.545,-18.729 0.01,-0.413 -0.312,-0.756 -0.728,-0.768 -0.392,-0.026 -0.756,0.314 -0.769,0.727 -0.324,11.896 -0.289,12.161 0.557,18.952 l 0.212,1.715 c 0.217,1.643 0.026,2.781 -0.533,3.219 -0.651,0.502 -1.79,0.056 -1.868,0.024 -5.501,-1.692 -12.354,1.804 -12.644,1.949 -0.367,0.188 -0.511,0.641 -0.321,1.008 0.133,0.257 0.395,0.401 0.665,0.401 0.115,0 0.231,-0.024 0.343,-0.084 0.045,-0.021 3.104,-1.576 6.576,-2.096 V 52.52 h -3.107 c -0.633,0 -1.146,0.512 -1.146,1.145 0,0.631 0.513,1.145 1.146,1.145 h 8.826 c 0.633,0 1.146,-0.514 1.146,-1.145 0,-0.633 -0.514,-1.145 -1.146,-1.145 H 50.278 V 40.749 c 0.689,0.047 1.369,0.154 2.021,0.354 0.08,0.032 1.935,0.794 3.281,-0.24 1.031,-0.792 1.406,-2.341 1.108,-4.594 z M 53.132,32.874 C 53.003,27.955 51.391,23.238 51.264,18.34 51.077,11.206 40.145,11.044 40.057,18.003 c -4.184,0.712 -8.363,1.09 -12.617,0.89 -3.861,-0.181 -3.873,5.8 -0.039,5.979 4.468,0.209 8.9,-0.215 13.301,-0.937 0.452,2.618 0.987,5.223 1.157,7.871 -9.104,3.18 -14.15,10.885 -15.438,20.677 -0.009,0.067 -0.011,0.139 -0.017,0.209 v -21.68 h 5.741 v -5.125 h -20.59 c 0.012,-0.065 0.017,-0.141 0.021,-0.235 0.002,-0.056 0.005,-0.118 0.009,-0.188 0.026,-0.433 0.102,-0.581 0.526,-0.663 0.107,-0.02 0.242,-0.026 0.378,-0.024 v 0.36 h 5.526 c 0.161,0.03 0.321,0.053 0.47,0.053 0.232,0 0.432,-0.053 0.55,-0.212 0.062,-0.083 0.062,-0.198 0.061,-0.309 0,-0.107 -0.001,-0.217 0.051,-0.282 0.08,-0.097 0.234,-0.162 0.343,-0.172 -0.115,0.222 -0.187,0.458 -0.187,0.708 h 6.259 c 0,-1.204 -1.402,-2.18 -3.129,-2.18 -0.54,0 -1.037,0.103 -1.479,0.27 0.103,1.031 -0.867,0.931 -1.242,0.855 -0.044,0.055 -0.082,0.113 -0.12,0.171 -0.017,-0.004 -0.031,-0.014 -0.05,-0.015 -0.167,-0.008 -0.408,0.093 -0.535,0.247 -0.095,0.116 -0.093,0.266 -0.093,0.398 10e-4,0.081 10e-4,0.165 -0.024,0.198 -0.066,0.089 -0.196,0.118 -0.345,0.126 V 24.131 H 12.49 v 0.457 c -0.161,-0.001 -0.311,0.013 -0.413,0.033 -0.537,0.103 -0.645,0.35 -0.674,0.83 -0.004,0.072 -0.006,0.136 -0.009,0.192 -0.004,0.109 -0.008,0.185 -0.023,0.243 H 0 v 5.125 H 3.125 V 55.869 H 26.403 V 53.38 c 0.379,3.83 6.916,3.48 7.492,-0.904 0.996,-7.575 5.414,-12.633 12.842,-14.307 3.088,0.47 6.499,-1.285 6.395,-5.295 z M 8.444,9.014 9.385,22.431 6.9,22.605 5.959,9.189 Z"
   id="path14412" /> </g> </g>

</svg>
