<?xml version="1.0" encoding="UTF-8" standalone="no"?>
<!-- Uploaded to: SVG Repo, www.svgrepo.com, Generator: SVG Repo Mixer Tools -->

<svg
   fill="#000000"
   version="1.1"
   id="Capa_1"
   width="1060"
   height="150"
   viewBox="0 0 160.7914 22.7535"
   xml:space="preserve"
   sodipodi:docname="scaling_vertically.svg"
   inkscape:version="1.1.2 (0a00cf5339, 2022-02-04)"
   xmlns:inkscape="http://www.inkscape.org/namespaces/inkscape"
   xmlns:sodipodi="http://sodipodi.sourceforge.net/DTD/sodipodi-0.dtd"
   xmlns="http://www.w3.org/2000/svg"
   xmlns:svg="http://www.w3.org/2000/svg"
   xmlns:rdf="http://www.w3.org/1999/02/22-rdf-syntax-ns#"
   xmlns:cc="http://creativecommons.org/ns#"><defs
   id="defs8230" /><sodipodi:namedview
   id="namedview8228"
   pagecolor="#ffffff"
   bordercolor="#cccccc"
   borderopacity="1"
   inkscape:pageshadow="0"
   inkscape:pageopacity="1"
   inkscape:pagecheckerboard="0"
   showgrid="false"
   inkscape:zoom="1.4919953"
   inkscape:cx="804.29207"
   inkscape:cy="65.013609"
   inkscape:window-width="1900"
   inkscape:window-height="1046"
   inkscape:window-x="10"
   inkscape:window-y="10"
   inkscape:window-maximized="1"
   inkscape:current-layer="Capa_1"
   width="1000px" />
<g
   id="g1337"><g
     id="g8221"
     style="stroke:#b8b8b8;stroke-width:0.60676;stroke-miterlimit:4;stroke-dasharray:none;stroke-opacity:1"
     transform="matrix(0.0940181,0,0,0.08734834,14.342487,7.7307676)">
			<path
   d="m 14.058,112.273 c -2.671,0 -5.174,-1.659 -6.123,-4.319 -1.206,-3.381 0.558,-7.1 3.939,-8.305 8.797,-3.145 18.032,-8.08 19.576,-10.444 2.219,-7.225 9.508,-23.93 9.82,-24.645 1.437,-3.29 5.27,-4.792 8.559,-3.354 3.29,1.438 4.791,5.269 3.354,8.559 -2.062,4.719 -7.76,18.121 -9.35,23.401 -2.609,8.664 -18.407,15.452 -27.592,18.727 -0.721,0.258 -1.458,0.38 -2.183,0.38 z"
   id="path8207"
   style="stroke:#b8b8b8;stroke-width:0.60676;stroke-miterlimit:4;stroke-dasharray:none;stroke-opacity:1" />
			<path
   d="m 65.87,121.352 c -0.763,0 -1.538,-0.136 -2.294,-0.421 -3.358,-1.268 -5.054,-5.018 -3.787,-8.376 2.805,-7.434 5.827,-16.579 6.66,-20.561 -2.797,-2.67 -9.536,-8.242 -15.298,-12.741 -2.83,-2.21 -3.332,-6.294 -1.123,-9.124 2.21,-2.828 6.295,-3.33 9.124,-1.122 17.609,13.751 19.027,16.47 19.633,17.63 1.21,2.32 2.716,5.208 -6.833,30.508 -0.983,2.602 -3.455,4.207 -6.082,4.207 z"
   id="path8209"
   style="stroke:#b8b8b8;stroke-width:0.60676;stroke-miterlimit:4;stroke-dasharray:none;stroke-opacity:1" />
			<circle
   cx="76.712997"
   cy="14.166"
   r="14.166"
   id="circle8211"
   style="stroke:#b8b8b8;stroke-width:0.60676;stroke-miterlimit:4;stroke-dasharray:none;stroke-opacity:1" />
			<g
   id="g8215"
   style="stroke:#b8b8b8;stroke-width:0.60676;stroke-miterlimit:4;stroke-dasharray:none;stroke-opacity:1">
				<path
   d="m 68.121,26.851 c 0,0 1.546,0.19 2.986,0.859 1.375,0.64 2.783,1.641 2.783,1.641 l 0.036,0.024 c 3.896,2.979 6.987,8.574 4.649,13.91 L 66.033,71.93 C 63.306,78.153 55.439,79.299 49.713,76.79 48.738,76.363 47.806,75.832 46.94,75.207 42.88,72.286 39.847,66.914 42.218,61.499 L 54.763,32.854 c 2.327,-5.316 8.557,-6.839 13.358,-6.003 z"
   id="path8213"
   style="stroke:#b8b8b8;stroke-width:0.60676;stroke-miterlimit:4;stroke-dasharray:none;stroke-opacity:1" />
			</g>
			<path
   d="m 28.649,50.542 c -1.12,0 -2.25,-0.34 -3.225,-1.048 -2.458,-1.783 -3.006,-5.22 -1.224,-7.679 2.7,-3.724 9.596,-12.598 15.307,-14.555 5.321,-1.824 21.093,-0.901 25.8,-0.575 3.03,0.21 5.316,2.836 5.106,5.867 -0.209,3.029 -2.805,5.313 -5.866,5.107 -8.536,-0.589 -19.204,-0.728 -21.479,0.009 -1.657,0.663 -6.417,5.722 -9.963,10.605 -1.076,1.482 -2.754,2.269 -4.456,2.269 z"
   id="path8217"
   style="stroke:#b8b8b8;stroke-width:0.60676;stroke-miterlimit:4;stroke-dasharray:none;stroke-opacity:1" />
			<path
   d="m 85.548,44.799 c -5.263,0 -10.754,-0.317 -13.907,-0.536 -3.03,-0.21 -5.316,-2.836 -5.106,-5.867 0.209,-3.029 2.8,-5.319 5.866,-5.107 8.536,0.591 19.204,0.728 21.478,-0.009 1.666,-0.666 6.426,-5.725 9.964,-10.604 1.784,-2.458 5.222,-3.007 7.682,-1.224 2.459,1.783 3.007,5.222 1.225,7.681 -2.7,3.724 -9.597,12.597 -15.308,14.554 -2.471,0.848 -7.087,1.112 -11.894,1.112 z"
   id="path8219"
   style="stroke:#b8b8b8;stroke-width:0.60676;stroke-miterlimit:4;stroke-dasharray:none;stroke-opacity:1" />
		</g></g>
<metadata
   id="metadata8385"><rdf:RDF><cc:Work
       rdf:about=""><cc:license
         rdf:resource="http://creativecommons.org/publicdomain/zero/1.0/" /></cc:Work><cc:License
       rdf:about="http://creativecommons.org/publicdomain/zero/1.0/"><cc:permits
         rdf:resource="http://creativecommons.org/ns#Reproduction" /><cc:permits
         rdf:resource="http://creativecommons.org/ns#Distribution" /><cc:permits
         rdf:resource="http://creativecommons.org/ns#DerivativeWorks" /></cc:License></rdf:RDF></metadata><g
   id="g1327"
   transform="translate(0.6828853,6.0844629)"><path
     d="M 6.3810056,2.6113673 C 6.8949527,2.6474363 7.3547999,2.2687355 7.3998832,1.7367558 7.4359522,1.2228088 7.0572514,0.76296144 6.525271,0.71787839 6.0113239,0.68181176 5.5514767,1.0605097 5.5063934,1.5924899 5.4703245,2.1154536 5.8670585,2.5753007 6.3810056,2.6113673"
     id="path2"
     style="stroke:#b8b8b8;stroke-width:0.0577064;stroke-miterlimit:4;stroke-dasharray:none;stroke-opacity:1" /><path
     d="m 5.5785267,2.9990812 c 0.180332,-0.1352487 0.4057484,-0.2073819 0.6582124,-0.1983653 0.3155818,0.027049 0.595097,0.2254153 0.7483802,0.4598483 l 0.9467443,1.8844719 1.289376,0.901661 c 0.1081952,0.090167 0.180332,0.2254152 0.1713153,0.3696818 -0.00898,0.2344319 -0.2254152,0.4057472 -0.4598471,0.3786972 -0.063118,0 -0.1352499,-0.027049 -0.1983653,-0.063118 L 7.3457832,5.7852129 C 7.3097142,5.7491439 7.2646368,5.7040665 7.2375881,5.6499642 l -0.360664,-0.7032957 -0.4237805,1.8754552 1.67709,1.9836551 c 0.036069,0.063118 0.063118,0.1352499 0.081146,0.1983653 l 0.4508305,2.3894039 c 0,0.0541 0,0.09017 0,0.135248 C 8.6351616,11.889462 8.3285953,12.13291 7.976948,12.123894 7.6884162,12.096845 7.4720176,11.889462 7.3998843,11.618963 L 6.9761038,9.391858 5.6145945,7.8770678 5.2990127,9.3287425 C 5.290028,9.3918603 5.1908175,9.5361245 5.163764,9.5902244 L 3.8653713,11.799295 C 3.7301226,11.99766 3.5227395,12.13291 3.2702743,12.10586 2.9096104,12.078811 2.6481285,11.772246 2.6751785,11.420598 c 0.00898,-0.108196 0.054098,-0.198367 0.090167,-0.279516 L 3.982589,9.112344 4.9924499,4.6310867 4.3342363,5.1630671 3.9735724,6.7590071 C 3.9375034,6.9573736 3.7391405,7.1286889 3.5227407,7.1196722 3.2883088,7.1106875 3.1169935,6.894257 3.1260102,6.659825 c 0,-0.00898 0,-0.036069 0.00898,-0.054097 L 3.5407433,4.7483044 C 3.5677921,4.667158 3.6038611,4.6040391 3.675992,4.5499391 Z"
     id="path4"
     style="stroke:#b8b8b8;stroke-width:0.0577064;stroke-miterlimit:4;stroke-dasharray:none;stroke-opacity:1" /></g><g
   style="fill:#000000"
   id="g1185"
   transform="matrix(0.02659798,0,0,0.02659798,26.755745,5.9295872)"><g
     id="g1175">
	<path
   d="m 321.097,112.359 c 20.973,12.338 47.985,5.315 60.293,-15.652 12.34,-20.973 5.35,-47.974 -15.623,-60.304 -21.009,-12.332 -47.99,-5.317 -60.314,15.65 -12.324,20.983 -5.35,47.974 15.644,60.306 z"
   id="path1171" />
	<path
   d="m 393.081,264.102 c -2.414,0 -4.8,0.194 -7.169,0.362 l -14.431,-71.605 4.702,-1.757 c 10.666,-3.987 16.093,-15.868 12.098,-26.54 -3.994,-10.681 -15.946,-16.084 -26.531,-12.09 l -51.823,19.38 -2.321,-18.864 c 6.3,-13.193 5.541,-29.78 -4.767,-41.482 -21.224,-24.092 -47.12,-12.508 -55.191,-5.976 l -106.884,86.555 0.016,0.024 c -3.319,2.893 -6.089,6.485 -7.86,10.842 -2.191,5.396 -2.596,11.067 -1.564,16.384 -8.503,0.669 -15.255,7.571 -15.255,16.246 0,9.085 7.346,16.44 16.432,16.48 l -6.797,15.906 c -8.62,-2.465 -17.674,-3.866 -27.066,-3.866 C 44.27,264.102 0,308.354 0,362.754 c 0,54.403 44.27,98.663 98.668,98.663 54.403,0 98.652,-44.26 98.652,-98.663 0,-36.228 -19.683,-67.867 -48.858,-85.024 l 10.957,-25.652 h 17.767 l 60.281,24.462 -32.201,52.773 c -8.297,13.612 -3.994,31.382 9.615,39.685 4.691,2.86 9.878,4.229 15,4.229 9.729,0 19.234,-4.929 24.677,-13.838 l 29.339,-48.095 19.072,11.511 c -5.447,12.227 -8.54,25.726 -8.54,39.95 0,54.403 44.254,98.663 98.652,98.663 54.402,0 98.656,-44.26 98.656,-98.663 0,-54.401 -44.254,-98.653 -98.656,-98.653 z M 98.668,436.671 c -40.756,0 -73.923,-33.161 -73.923,-73.917 0,-40.756 33.167,-73.909 73.923,-73.909 5.944,0 11.649,0.896 17.188,2.224 L 95.38,338.962 c -11.758,1.619 -20.843,11.598 -20.843,23.792 0,13.323 10.808,24.132 24.13,24.132 8.767,0 16.367,-4.745 20.589,-11.76 h 52.065 c -5.926,34.862 -36.133,61.545 -72.653,61.545 z m 72.654,-86.288 h -52.065 c -0.355,-0.588 -0.708,-1.176 -1.112,-1.732 l 20.476,-47.901 c 17.058,11.026 29.172,28.845 32.701,49.633 z m 125.459,-60.208 7.666,-12.564 c 4.416,-7.233 5.431,-16.038 2.774,-24.084 -2.661,-8.046 -8.718,-14.515 -16.562,-17.704 l -52.725,-21.395 32.443,-26.281 1.804,14.691 c 0.756,6.267 4.366,11.841 9.761,15.12 3.271,1.981 6.979,2.988 10.698,2.988 2.435,0 4.88,-0.435 7.218,-1.306 l 48.15,-18.001 13.627,67.691 c -18.268,6.162 -34.117,17.51 -45.848,32.314 z m 78.615,47.458 -38.003,-22.94 c 7.877,-9.118 17.787,-16.319 29.205,-20.734 z m 17.685,99.038 c -40.757,0 -73.907,-33.161 -73.907,-73.917 0,-9.544 1.965,-18.597 5.268,-26.983 l 44.541,26.888 c 0,0.032 -0.016,0.064 -0.016,0.095 0,13.323 10.808,24.132 24.114,24.132 13.322,0 24.118,-10.81 24.118,-24.132 0,-10.478 -6.721,-19.307 -16.06,-22.64 l -10.277,-51.043 c 0.756,-0.024 1.463,-0.226 2.22,-0.226 40.757,0 73.911,33.153 73.911,73.909 -10e-4,40.756 -33.155,73.917 -73.912,73.917 z"
   id="path1173" />
</g></g><g
   style="fill:#000000"
   id="g1254"
   transform="matrix(-0.08601029,0,0,0.08601029,87.175783,-10.946937)"><g
     id="g1242">
	<g
   id="g1240">
		<path
   d="m 26.721,318.458 c -2.182,-5.643 -3.424,-11.745 -3.424,-18.146 0,-27.867 22.674,-50.537 50.542,-50.537 27.868,0 50.534,22.67 50.534,50.529 0,6.869 -1.389,13.421 -3.888,19.412 l 256.323,-14.539 c -0.152,-1.599 -0.244,-3.226 -0.244,-4.865 0,-27.867 22.678,-50.537 50.545,-50.537 27.575,0 50.037,22.217 50.49,49.692 l 5.273,-0.297 c 10.468,-37.95 -8.508,-50.378 -8.508,-50.378 5.238,-42.528 -21.588,-51.684 -21.588,-51.684 -7.851,-17.663 -30.749,-43.176 -30.749,-43.176 26.173,-17.663 -18.967,-7.199 -18.967,-7.199 -59.53,-7.851 -194.95,-1.962 -210.65,5.889 -15.701,7.851 -62.803,51.026 -62.803,51.026 C -2.54,213.463 7.926,261.22 7.926,261.22 c -14.389,2.612 -5.887,24.861 -0.194,45.829 1.513,5.59 8.938,9.153 18.989,11.409 z"
   id="path1234" />
		<path
   d="m 73.83,257.625 c -23.574,0 -42.691,19.104 -42.691,42.687 0,7.149 1.783,13.882 4.885,19.801 7.153,13.594 21.385,22.883 37.806,22.883 16.382,0 30.593,-9.237 37.746,-22.782 3.14,-5.943 4.937,-12.72 4.937,-19.909 0.008,-23.576 -19.101,-42.68 -42.683,-42.68 z"
   id="path1236" />
		<path
   d="m 427.101,257.625 c -23.575,0 -42.695,19.104 -42.695,42.687 0,1.495 0.076,2.966 0.232,4.429 2.221,21.491 20.382,38.255 42.463,38.255 23.584,0 42.688,-19.111 42.688,-42.691 0,-0.132 -0.016,-0.269 -0.024,-0.4 -0.209,-23.385 -19.229,-42.28 -42.664,-42.28 z"
   id="path1238" />
	</g>
</g></g><g
   style="fill:#000000"
   id="g1323"
   transform="matrix(0.133607,0,0,0.133607,93.424742,-23.449508)"><g
     id="g1311">
	<g
   id="g1309">
		<path
   d="m 478.805,289.625 -1.787,-11.565 -0.729,-0.854 c -39.942,-46.729 -75.231,-49.125 -88.508,-50.028 -1.318,-0.092 -2.789,-0.188 -3.526,-0.305 -5.903,-4.679 -29.575,-9.914 -35.142,-9.914 -0.016,0 -0.024,0 -0.04,0 -1.88,0.126 -3.903,0.753 -6.027,1.412 -4.496,1.397 -10.095,2.683 -14.627,0.579 -9.666,-4.48 -30.978,-4.614 -33.378,-4.614 l -20.738,5.063 c -17.29,-6.264 -47.346,-20.021 -55.804,-23.918 v -8.157 l -1.811,-1.154 c -3.635,-2.309 -7.418,-3.48 -11.267,-3.48 -8.854,0 -15.408,6.201 -18.149,9.329 -7.881,-0.19 -36.542,0.339 -63.776,17.711 -18.698,11.94 -26.158,15.244 -28.812,16.164 l -0.269,-0.357 -0.248,0.072 -2.883,-3.17 c 4.807,-1.487 8.323,-5.915 8.323,-11.205 v -6.869 c 0,-6.494 -5.284,-11.775 -11.776,-11.775 H 65.253 c -3.857,0 -7.253,1.894 -9.408,4.757 -1.575,-2.164 -4.496,-4.27 -10.219,-4.27 -4.35,0 -8.871,-0.102 -13.259,-0.195 -4.209,-0.096 -8.299,-0.188 -12.002,-0.188 -9.077,0 -20.366,0 -20.366,7.251 v 50.407 l 25.026,6.188 v -5.021 c 0,-18.971 19.61,-23.429 20.444,-23.618 l 1.453,-0.314 0.877,-1.176 c 0.509,-0.683 1.491,-2.065 2.607,-3.791 l 4.771,14.084 -27.042,7.7 4.53,42.718 2.234,0.865 c 1.495,0.577 22.792,8.772 43.527,15.4 -1.653,-1.715 -3.144,-3.57 -4.454,-5.57 -1.05,-1.603 -1.956,-3.306 -2.755,-5.062 -2.198,-4.829 -3.5,-10.143 -3.5,-15.785 0,-21.099 17.168,-38.267 38.271,-38.267 21.101,0 38.269,17.168 38.269,38.267 0,10.167 -4.052,19.364 -10.54,26.233 -1.415,1.49 -2.972,2.809 -4.604,4.055 -2.1,1.611 -4.346,3.014 -6.759,4.164 32.759,-1.295 167.665,-3.471 240.792,-4.521 0.561,-0.008 1.242,-0.016 1.879,-0.016 -1.519,-1.206 -2.973,-2.453 -4.3,-3.871 -1.142,-1.223 -2.224,-2.509 -3.206,-3.88 -4.484,-6.264 -7.181,-13.886 -7.181,-22.165 0,-21.099 17.172,-38.267 38.271,-38.267 21.096,0 38.271,17.168 38.271,38.267 0,8.479 -2.854,16.246 -7.538,22.586 -0.998,1.362 -2.04,2.681 -3.21,3.896 -1.367,1.418 -2.901,2.665 -4.465,3.863 15.657,0.2 32.14,0.396 45.801,0.396 16.375,0 25.772,-0.276 29.539,-0.85 4.408,-0.673 6.785,-2.492 7.062,-5.39 0.169,-1.93 0.533,-5.869 -15.264,-11.845 z"
   id="path1303" />
		<path
   d="m 107.537,307.238 c 4.599,-0.232 8.893,-1.503 12.738,-3.583 9.548,-5.13 16.126,-15.1 16.126,-26.686 0,-16.774 -13.644,-30.42 -30.421,-30.42 -16.777,0 -30.42,13.646 -30.42,30.42 0,7.515 2.839,14.307 7.363,19.625 2.166,2.54 4.711,4.716 7.598,6.432 4.544,2.709 9.791,4.364 15.458,4.364 0.534,0.016 1.029,-0.124 1.558,-0.152 z"
   id="path1305" />
		<path
   d="m 388.594,307.406 c 1.118,0 2.191,-0.217 3.282,-0.337 4.231,-0.46 8.171,-1.755 11.697,-3.774 1.916,-1.103 3.719,-2.377 5.358,-3.855 6.146,-5.566 10.082,-13.529 10.082,-22.453 0,-16.783 -13.645,-30.421 -30.42,-30.421 -16.775,0 -30.421,13.638 -30.421,30.421 0,8.691 3.711,16.498 9.582,22.049 1.595,1.502 3.374,2.805 5.262,3.939 3.435,2.071 7.281,3.434 11.421,4.011 1.38,0.18 2.73,0.42 4.157,0.42 z"
   id="path1307" />
	</g>
</g></g></svg>
