<?xml version="1.0" encoding="UTF-8" standalone="no"?>
<!-- Created with Inkscape (http://www.inkscape.org/) -->

<svg
   width="18.9618mm"
   height="17.197901mm"
   viewBox="0 0 18.9618 17.197901"
   version="1.1"
   id="svg14761"
   inkscape:version="1.1.2 (0a00cf5339, 2022-02-04)"
   sodipodi:docname="server_19x17_mm.svg"
   xmlns:inkscape="http://www.inkscape.org/namespaces/inkscape"
   xmlns:sodipodi="http://sodipodi.sourceforge.net/DTD/sodipodi-0.dtd"
   xmlns="http://www.w3.org/2000/svg"
   xmlns:svg="http://www.w3.org/2000/svg">
  <sodipodi:namedview
     id="namedview14763"
     pagecolor="#ffffff"
     bordercolor="#cccccc"
     borderopacity="1"
     inkscape:pageshadow="0"
     inkscape:pageopacity="1"
     inkscape:pagecheckerboard="0"
     inkscape:document-units="mm"
     showgrid="false"
     inkscape:zoom="0.73228114"
     inkscape:cx="116.07564"
     inkscape:cy="237.61366"
     inkscape:window-width="1900"
     inkscape:window-height="1024"
     inkscape:window-x="10"
     inkscape:window-y="1080"
     inkscape:window-maximized="1"
     inkscape:current-layer="layer1"
     fit-margin-top="0"
     fit-margin-left="0"
     fit-margin-right="0"
     fit-margin-bottom="0" />
  <defs
     id="defs14758" />
  <g
     inkscape:label="Layer 1"
     inkscape:groupmode="layer"
     id="layer1"
     transform="translate(-20.037968,-114.56607)">
    <g
       style="fill:none"
       id="g14907"
       transform="matrix(0.88194417,0,0,0.88194357,18.935538,112.5817)">
      <path
         fill-rule="evenodd"
         clip-rule="evenodd"
         d="M 4.97475,2.25 H 19.0253 c 0.4444,-1e-5 0.8155,-1e-5 1.1201,0.02077 0.3171,0.02164 0.6166,0.06828 0.907,0.18856 0.6738,0.27911 1.2092,0.81446 1.4883,1.48829 0.1203,0.29039 0.1669,0.58992 0.1885,0.90702 0.0208,0.30461 0.0208,0.67564 0.0208,1.1201 v 0.05052 c 0,0.44446 0,0.81549 -0.0208,1.12011 C 22.7076,7.46247 22.661,7.76199 22.5407,8.05238 22.3908,8.41428 22.1669,8.73624 21.8875,9 c 0.2794,0.26377 0.5033,0.58572 0.6532,0.94762 0.1203,0.29038 0.1669,0.58988 0.1885,0.90698 0.0208,0.3046 0.0208,0.6757 0.0208,1.1201 v 0.0506 c 0,0.4444 0,0.8155 -0.0208,1.1201 -0.0216,0.3171 -0.0682,0.6166 -0.1885,0.907 -0.1499,0.3619 -0.3738,0.6838 -0.6532,0.9476 0.2794,0.2638 0.5033,0.5857 0.6532,0.9476 0.1203,0.2904 0.1669,0.5899 0.1885,0.907 0.0208,0.3046 0.0208,0.6757 0.0208,1.1201 v 0.0506 c 0,0.4444 0,0.8155 -0.0208,1.1201 -0.0216,0.3171 -0.0682,0.6166 -0.1885,0.907 -0.2791,0.6738 -0.8145,1.2092 -1.4883,1.4883 -0.2904,0.1203 -0.5899,0.1669 -0.907,0.1885 C 19.8408,21.75 19.4697,21.75 19.0253,21.75 H 4.97474 c -0.44446,0 -0.81549,0 -1.1201,-0.0208 C 3.53754,21.7076 3.23801,21.661 2.94762,21.5407 2.27379,21.2616 1.73844,20.7262 1.45933,20.0524 1.33905,19.762 1.29241,19.4625 1.27077,19.1454 1.24999,18.8408 1.24999,18.4697 1.25,18.0253 v -0.0505 c -1e-5,-0.4445 -1e-5,-0.8156 0.02077,-1.1202 C 1.29241,16.5375 1.33905,16.238 1.45933,15.9476 1.60924,15.5857 1.83305,15.2638 2.11254,15 1.83305,14.7362 1.60924,14.4143 1.45933,14.0524 1.33905,13.762 1.29241,13.4625 1.27077,13.1454 1.24999,12.8408 1.24999,12.4697 1.25,12.0253 v -0.0505 c -1e-5,-0.4445 -1e-5,-0.8156 0.02077,-1.1202 C 1.29241,10.5375 1.33905,10.238 1.45933,9.94762 1.60924,9.58572 1.83305,9.26377 2.11254,9 1.83305,8.73623 1.60924,8.41428 1.45933,8.05238 1.33905,7.76199 1.29241,7.46247 1.27077,7.14537 1.24999,6.84075 1.24999,6.46971 1.25,6.02525 V 5.97475 C 1.24999,5.53029 1.24999,5.15925 1.27077,4.85464 1.29241,4.53754 1.33905,4.23801 1.45933,3.94762 1.73844,3.27379 2.27379,2.73844 2.94762,2.45933 3.23801,2.33905 3.53754,2.29241 3.85464,2.27077 4.15925,2.24999 4.53029,2.24999 4.97475,2.25 Z M 5,8.25 C 4.5238,8.25 4.20421,8.24959 3.95674,8.23271 3.71602,8.21629 3.5988,8.18681 3.52165,8.15485 3.21536,8.02798 2.97202,7.78464 2.84515,7.47835 2.81319,7.4012 2.78372,7.28399 2.76729,7.04326 2.75041,6.79579 2.75,6.4762 2.75,6 2.75,5.5238 2.75041,5.20421 2.76729,4.95674 2.78372,4.71602 2.81319,4.5988 2.84515,4.52165 2.97202,4.21536 3.21536,3.97202 3.52165,3.84515 3.5988,3.81319 3.71602,3.78372 3.95674,3.76729 4.20421,3.75041 4.5238,3.75 5,3.75 h 14 c 0.4762,0 0.7958,4.1e-4 1.0433,0.01729 0.2407,0.01643 0.3579,0.0459 0.4351,0.07786 0.3062,0.12687 0.5496,0.37021 0.6765,0.6765 0.0319,0.07715 0.0614,0.19437 0.0778,0.43509 C 21.2496,5.20421 21.25,5.5238 21.25,6 c 0,0.4762 -4e-4,0.79579 -0.0173,1.04326 C 21.2163,7.28399 21.1868,7.4012 21.1549,7.47835 21.028,7.78464 20.7846,8.02798 20.4784,8.15485 20.4012,8.18681 20.284,8.21629 20.0433,8.23271 19.7958,8.24959 19.4762,8.25 19,8.25 Z m 0,1.5 C 4.5238,9.75 4.20421,9.75041 3.95674,9.76729 3.71602,9.78372 3.5988,9.81319 3.52165,9.84515 3.21536,9.97202 2.97202,10.2154 2.84515,10.5216 2.81319,10.5988 2.78372,10.716 2.76729,10.9567 2.75041,11.2042 2.75,11.5238 2.75,12 c 0,0.4762 4.1e-4,0.7958 0.01729,1.0433 0.01643,0.2407 0.0459,0.3579 0.07786,0.4351 0.12687,0.3062 0.37021,0.5496 0.6765,0.6765 0.07715,0.0319 0.19437,0.0614 0.43509,0.0778 C 4.20421,14.2496 4.5238,14.25 5,14.25 h 14 c 0.4762,0 0.7958,-4e-4 1.0433,-0.0173 0.2407,-0.0164 0.3579,-0.0459 0.4351,-0.0778 0.3062,-0.1269 0.5496,-0.3703 0.6765,-0.6765 0.0319,-0.0772 0.0614,-0.1944 0.0778,-0.4351 C 21.2496,12.7958 21.25,12.4762 21.25,12 c 0,-0.4762 -4e-4,-0.7958 -0.0173,-1.0433 C 21.2163,10.716 21.1868,10.5988 21.1549,10.5216 21.028,10.2154 20.7846,9.97202 20.4784,9.84515 20.4012,9.81319 20.284,9.78372 20.0433,9.76729 19.7958,9.75041 19.4762,9.75 19,9.75 Z m 0,6 c -0.4762,0 -0.79579,4e-4 -1.04326,0.0173 C 3.71602,15.7837 3.5988,15.8132 3.52165,15.8452 3.21536,15.972 2.97202,16.2154 2.84515,16.5216 2.81319,16.5988 2.78372,16.716 2.76729,16.9567 2.75041,17.2042 2.75,17.5238 2.75,18 c 0,0.4762 4.1e-4,0.7958 0.01729,1.0433 0.01643,0.2407 0.0459,0.3579 0.07786,0.4351 0.12687,0.3062 0.37021,0.5496 0.6765,0.6765 0.07715,0.0319 0.19437,0.0614 0.43509,0.0778 C 4.20421,20.2496 4.5238,20.25 5,20.25 h 14 c 0.4762,0 0.7958,-4e-4 1.0433,-0.0173 0.2407,-0.0164 0.3579,-0.0459 0.4351,-0.0778 0.3062,-0.1269 0.5496,-0.3703 0.6765,-0.6765 0.0319,-0.0772 0.0614,-0.1944 0.0778,-0.4351 C 21.2496,18.7958 21.25,18.4762 21.25,18 c 0,-0.4762 -4e-4,-0.7958 -0.0173,-1.0433 C 21.2163,16.716 21.1868,16.5988 21.1549,16.5216 21.028,16.2154 20.7846,15.972 20.4784,15.8452 20.4012,15.8132 20.284,15.7837 20.0433,15.7673 19.7958,15.7504 19.4762,15.75 19,15.75 Z"
         fill="#1c274c"
         id="path14889" />
      <path
         d="m 6,12 c 0,0.5523 -0.44771,1 -1,1 -0.55228,0 -1,-0.4477 -1,-1 0,-0.5523 0.44772,-1 1,-1 0.55229,0 1,0.4477 1,1 z"
         fill="#1c274c"
         id="path14891" />
      <path
         d="M 6,6 C 6,6.55229 5.55229,7 5,7 4.44772,7 4,6.55229 4,6 4,5.44772 4.44772,5 5,5 5.55229,5 6,5.44772 6,6 Z"
         fill="#1c274c"
         id="path14893" />
      <path
         d="m 6,18 c 0,0.5523 -0.44771,1 -1,1 -0.55228,0 -1,-0.4477 -1,-1 0,-0.5523 0.44772,-1 1,-1 0.55229,0 1,0.4477 1,1 z"
         fill="#1c274c"
         id="path14895" />
    </g>
  </g>
</svg>
